# AST/ASF file generated using VICON BodyLanguage
# -----------------------------------------------
:version 1.10
:name VICON
:units
  mass 1.0
  length 0.45
  angle deg
:documentation
   .ast/.asf automatically generated from VICON data using
   VICON BodyBuilder and BodyLanguage model FoxedUp or BRILLIANT.MOD
:root
   order TX TY TZ RX RY RZ
   axis XYZ
   position 0 0 0  
   orientation 0 0 0 
:bonedata
  begin
     id 1 
     name lhipjoint
     direction 0.64773 -0.699417 0.302095 
     length 2.48597 
     axis 0 0 0  XYZ
  end
  begin
     id 2 
     name lfemur
     direction 0.34202 -0.939693 0  
     length 6.71947  
     axis 0 0 20  XYZ
    dof rx ry rz
    limits (-160.0 20.0)
           (-70.0 70.0)
           (-60.0 70.0)
  end
  begin
     id 3 
     name ltibia
     direction 0.34202 -0.939693 0   
     length 8.08777   
     axis 0 0 20   XYZ
    dof rx
    limits (-10.0 170.0)
  end
  begin
     id 4 
     name lfoot
     direction 0.0808503 -0.222134 0.971658   
     length 2.08264   
     axis -90 7.62852e-016 20   XYZ
    dof rx rz
    limits (-45.0 90.0)
           (-70.0 20.0)
  end
  begin
     id 5 
     name ltoes
     direction 1.53502e-011 -4.22007e-011 1   
     length 1.04662   
     axis -90 7.62852e-016 20   XYZ
    dof rx
    limits (-90.0 20.0)
  end
  begin
     id 6 
     name rhipjoint
     direction -0.610924 -0.726792 0.313919   
     length 2.39233  
     axis 0 0 0  XYZ 
  end
  begin
     id 7 
     name rfemur
     direction -0.34202 -0.939693 0   
     length 6.96955   
     axis 0 0 -20   XYZ
    dof rx ry rz
    limits (-160.0 20.0)
           (-70.0 70.0)
           (-70.0 60.0)
  end
  begin
     id 8 
     name rtibia
     direction -0.34202 -0.939693 0   
     length 8.19584   
     axis 0 0 -20   XYZ
    dof rx
    limits (-10.0 170.0)
 end
 begin
     id 9 
     name rfoot
     direction -0.077777 -0.213691 0.9738   
     length 2.07539  
     axis -90 -7.62852e-016 -20   XYZ
    dof rx rz
    limits (-45.0 90.0)
           (-20.0 70.0)
  end
  begin
     id 10 
     name rtoes
     direction -1.53558e-011 -4.22006e-011 1   
     length 1.04381   
     axis -90 -7.62852e-016 -20   XYZ
    dof rx
    limits (-90.0 20.0)
  end
  begin
     id 11 
     name lowerback
     direction -0.00971646 0.996074 0.0879841   
     length 1.67643   
     axis 0 0 0   XYZ
    dof rx ry rz
    limits (-20.0 45.0)
           (-30.0 30.0)
           (-30.0 30.0)
  end
  begin
     id 12 
     name upperback
     direction 0.0127391 0.991676 0.128127   
     length 1.63741   
     axis 0 0 0   XYZ
    dof rx ry rz
    limits (-20.0 45.0)
           (-30.0 30.0)
           (-30.0 30.0)
  end
  begin
     id 13 
     name thorax
     direction 0.0167583 0.996049 0.0872067   
     length 1.65931   
     axis 0 0 0   XYZ
    dof rx ry rz
    limits (-20.0 45.0)
           (-30.0 30.0)
           (-30.0 30.0)
  end
  begin
     id 14 
     name lowerneck
     direction -0.0317829 0.998312 0.0486079   
     length 1.79021   
     axis 0 0 0   XYZ
    dof rx ry rz
    limits (-20.0 45.0)
           (-30.0 30.0)
           (-30.0 30.0)
  end
  begin
     id 15 
     name upperneck
     direction 0.0896851 0.972452 -0.215159   
     length 1.78797   
     axis 0 0 0   XYZ
    dof rx ry rz
    limits (-20.0 45.0)
           (-30.0 30.0)
           (-30.0 30.0)
  end
  begin
     id 16
     name head
     direction 0.0310949 0.996503 -0.0775582  
     length 1.81549  
     axis 0 0 0   XYZ
    dof rx ry rz
    limits (-20.0 45.0)
           (-30.0 30.0)
           (-30.0 30.0)
  end
  begin
     id 17 
     name lclavicle
     direction 0.853638 0.502051 -0.138733  
     length 3.31627  
     axis 0 0 0   XYZ
    dof ry rz
    limits (-20.0 10.0)
           (0.0 20.0)
  end
  begin
     id 18 
     name lhumerus
     direction 1 -4.48962e-011 -1.41788e-018   
     length 5.54893   
     axis 180 -30 -90   XYZ
    dof rx ry rz
    limits (-60.0 90.0)
           (-90.0 90.0)
           (-90.0 90.0)
  end
  begin
     id 19
     name lradius
     direction 1 -4.48962e-011 -4.95754e-027   
     length 3.02898   
     axis 180 -30 -90   XYZ
    dof rx
    limits (-10.0 170.0)
  end
  begin
     id 20
     name lwrist
     direction 1 -4.48952e-011 -1.03764e-026   
     length 1.51449   
     axis 9.09556e-015 90 90   XYZ
    dof ry
    limits (-180.0 0.0)
 end
  begin
     id 21 
     name lhand
     direction 1 -4.4902e-011 -2.07528e-026   
     length 0.640951   
     axis 1.3242e-014 90 90   XYZ
    dof rx rz
    limits (-90.0 90.0)
           (-45.0 45.0)
  end
  begin
     id 22 
     name lfingers
     direction 1 -4.49014e-011 -4.15056e-026   
     length 0.516751   
     axis 2.64841e-014 90 90   XYZ
    dof rx
    limits (0.0 90.0)
  end
  begin
     id 23
     name lthumb
     direction 0.707107 -6.35008e-011 0.707107   
     length 0.741954   
     axis -90 45 2.85299e-015   XYZ
    dof rx rz
    limits (-45.0 45.0)
           (-45.0 45.0)
  end
  begin
     id 24 
     name rclavicle
     direction -0.888531 0.455324 -0.0565039   
     length 3.20126  
     axis 0 0 0   XYZ 
    dof ry rz
    limits (-10.0 20.0)
           (-20.0 0.0)
  end
  begin
     id 25 
     name rhumerus
     direction -1 -4.48946e-011 -8.98298e-028  
     length 5.3519   
     axis 180 30 90   XYZ
    dof rx ry rz
    limits (-90.0 60.0)
           (-90.0 90.0)
           (-90.0 90.0)
  end
  begin
     id 26 
     name rradius
     direction -1 -4.4899e-011 -3.18779e-027   
     length 3.02531   
     axis 180 30 90   XYZ
    dof rx
    limits (-10.0 170.0)
  end
  begin
     id 27 
     name rwrist
     direction -1 -4.4897e-011 -1.03764e-026   
     length 1.51266   
     axis 9.09556e-015 -90 -90   XYZ
    dof ry
    limits (-180.0 0.0)
  end
  begin
     id 28
     name rhand
     direction -1 -4.48941e-011 -2.07528e-026   
     length 0.78389   
     axis 1.3242e-014 -90 -90   XYZ
    dof rx rz
    limits (-90.0 90.0)
           (-45.0 45.0)
  end
  begin
     id 29
     name rfingers
     direction -1 -4.49012e-011 -4.15056e-026   
     length 0.631992   
     axis 2.64841e-014 -90 -90   XYZ
    dof rx
    limits (0.0 90.0)
  end
  begin
     id 30
     name rthumb
     direction -0.707107 -6.3496e-011 0.707107   
     length 0.907418   
     axis -90 -45 -2.85299e-015   XYZ
    dof rx rz
    limits (-45.0 45.0)
           (-45.0 45.0)
  end
:hierarchy
  begin
    root lhipjoint rhipjoint lowerback
    lhipjoint lfemur
    lfemur ltibia
    ltibia lfoot
    lfoot ltoes
    rhipjoint rfemur
    rfemur rtibia
    rtibia rfoot
    rfoot rtoes
    lowerback upperback
    upperback thorax
    thorax lowerneck lclavicle rclavicle
    lowerneck upperneck
    upperneck head
    lclavicle lhumerus
    lhumerus lradius
    lradius lwrist
    lwrist lhand lthumb
    lhand lfingers
    rclavicle rhumerus
    rhumerus rradius
    rradius rwrist
    rwrist rhand rthumb
    rhand rfingers
  end

#!OML:ASF E:\Style3\Style3.ASF
:FULLY-SPECIFIED
:DEGREES
1179
root 0.0539683 17.7394 -0.213804 186.446 130.806 175.642
lowerback -7.53693 -12.6018 -7.57312
upperback -10.0266 -16.2232 5.87415
thorax -2.7808 -7.59871 8.93793
lowerneck -10.9117 -5.71934 -7.93125
upperneck 34.0431 -7.24532 2.44986
head 13.7651 -3.83038 1.27925
rclavicle -4.37326e-014 1.03368e-014
rhumerus -366.933 38.7793 -394.537
rradius 111.898
rwrist 30.8821
rhand -27.2063 13.4535
rfingers 7.12502
rthumb -0.619298 -16.5254
lclavicle -4.37326e-014 1.03368e-014
lhumerus -17.1168 -40.4243 66.3899
lradius 108.64
lwrist -31.7497
lhand -43.4892 34.5321
lfingers 7.12502
lthumb -16.3294 63.8646
rfemur -21.8017 21.4589 13.4847
rtibia 18.784
rfoot -10.8243 4.54175
rtoes -18.9414
lfemur 3.83925 39.0364 -20.3404
ltibia 0
lfoot -12.8517 1.49267
ltoes 17.2101
1180
root 0.0563054 17.7465 -0.218959 186.514 130.121 175.655
lowerback -7.80843 -12.3976 -7.36482
upperback -9.91952 -15.933 5.66502
thorax -2.68689 -7.46962 8.59592
lowerneck -11.0151 -5.57152 -7.73891
upperneck 33.9258 -7.08232 2.5661
head 13.7181 -3.71191 1.31802
rclavicle 3.43897e-014 -1.74931e-014
rhumerus -366.657 38.8998 -395.066
rradius 111.679
rwrist 30.7679
rhand -27.4157 13.6429
rfingers 7.12502
rthumb -0.821536 -16.3353
lclavicle 3.43897e-014 -1.74931e-014
lhumerus -16.7491 -40.4669 65.6809
lradius 108.654
lwrist -31.4045
lhand -43.7292 33.8508
lfingers 7.12502
lthumb -16.5605 63.1642
rfemur -21.6764 21.3375 13.4187
rtibia 18.6685
rfoot -10.7824 3.99481
rtoes -18.7592
lfemur 3.6159 38.5269 -20.4382
ltibia 4.77083e-015
lfoot -12.7436 1.49466
ltoes 16.7383
1181
root 0.0548799 17.7476 -0.223541 186.424 129.369 175.565
lowerback -8.00001 -12.2189 -7.10877
upperback -9.7796 -15.6874 5.45608
thorax -2.59961 -7.36635 8.23688
lowerneck -11.0417 -5.3837 -7.56222
upperneck 33.7536 -6.88739 2.75995
head 13.632 -3.57254 1.39728
rclavicle 8.5875e-014 2.18663e-014
rhumerus -366.194 39.1041 -395.411
rradius 111.665
rwrist 30.6605
rhand -27.4316 13.4098
rfingers 7.12502
rthumb -0.836908 -16.5683
lclavicle 8.5875e-014 2.18663e-014
lhumerus -16.4204 -40.1982 64.8581
lradius 108.649
lwrist -31.3586
lhand -43.7166 33.4339
lfingers 7.12502
lthumb -16.5484 62.7482
rfemur -21.4624 21.1898 13.475
rtibia 18.5588
rfoot -10.792 3.41647
rtoes -19.0181
lfemur 3.49247 37.9582 -20.3978
ltibia -2.06736e-014
lfoot -12.7055 1.48019
ltoes 15.5982
1182
root 0.0499405 17.7488 -0.225418 186.373 128.53 175.511
lowerback -8.00111 -12.0604 -7.09336
upperback -9.71681 -15.4745 5.38883
thorax -2.59282 -7.26095 8.18714
lowerneck -11.3146 -5.21886 -7.375
upperneck 33.8044 -6.64003 2.73003
head 13.6863 -3.43433 1.38713
rclavicle -1.17184e-013 -4.37326e-014
rhumerus -365.604 39.15 -395.38
rradius 111.71
rwrist 31.0127
rhand -27.098 13.0283
rfingers 7.12502
rthumb -0.514785 -16.9508
lclavicle -1.17184e-013 -4.37326e-014
lhumerus -16.1885 -39.79 64.331
lradius 108.549
lwrist -31.6275
lhand -43.5084 33.8047
lfingers 7.12502
lthumb -16.3479 63.1357
rfemur -21.3248 20.9515 13.5475
rtibia 18.579
rfoot -10.8767 2.74975
rtoes -20.062
lfemur 3.35457 37.3011 -20.372
ltibia -2.22639e-014
lfoot -12.6136 1.51255
ltoes 14.103
1183
root 0.0428685 17.7482 -0.226936 186.539 127.613 175.598
lowerback -7.85287 -11.9259 -7.28703
upperback -9.83286 -15.2944 5.45097
thorax -2.7693 -7.14483 8.42515
lowerneck -11.4558 -5.04348 -7.1533
upperneck 33.8228 -6.29434 2.41227
head 13.6798 -3.28788 1.27539
rclavicle -7.99114e-014 -5.76476e-014
rhumerus -365.021 39.3002 -395.346
rradius 111.617
rwrist 31.2636
rhand -26.6984 13.1924
rfingers 7.12502
rthumb -0.128775 -16.7873
lclavicle -7.99114e-014 -5.76476e-014
lhumerus -16.2514 -39.3373 64.167
lradius 108.452
lwrist -31.7581
lhand -43.6312 33.2533
lfingers 7.12502
lthumb -16.4661 62.5745
rfemur -21.3416 20.6756 13.4794
rtibia 18.6626
rfoot -10.9279 2.04551
rtoes -20.5661
lfemur 3.08208 36.5539 -20.5398
ltibia -4.77083e-015
lfoot -12.557 1.4914
ltoes 12.8817
1184
root 0.038423 17.7494 -0.227571 186.645 126.688 175.664
lowerback -7.74249 -11.7535 -7.38195
upperback -9.89998 -15.0654 5.45961
thorax -2.92096 -7.01149 8.55246
lowerneck -11.6574 -4.91046 -7.04435
upperneck 33.7643 -6.04372 2.28478
head 13.6728 -3.17199 1.24219
rclavicle 1.82783e-013 4.6118e-014
rhumerus -364.52 39.5929 -395.388
rradius 111.547
rwrist 31.022
rhand -26.4553 13.1751
rfingers 7.12502
rthumb 0.105954 -16.8046
lclavicle 1.82783e-013 4.6118e-014
lhumerus -16.2142 -39.1896 63.7778
lradius 108.504
lwrist -31.2778
lhand -44.52 32.6249
lfingers 7.12502
lthumb -17.3217 61.873
rfemur -21.1827 20.581 13.3673
rtibia 18.6954
rfoot -11.0201 1.3535
rtoes -19.5429
lfemur 2.90382 35.8 -20.6308
ltibia -1.59028e-014
lfoot -12.4858 1.37021
ltoes 12.5379
1185
root 0.0388069 17.7544 -0.230078 186.555 125.73 175.553
lowerback -7.8058 -11.4751 -7.14082
upperback -9.8311 -14.6945 5.29376
thorax -2.98068 -6.83391 8.29891
lowerneck -11.7022 -4.84472 -7.06954
upperneck 33.4772 -6.00983 2.57709
head 13.5651 -3.11423 1.3685
rclavicle -3.67752e-015 -1.98785e-014
rhumerus -364.346 39.514 -395.711
rradius 111.467
rwrist 30.9491
rhand -26.1336 13.3383
rfingers 7.12502
rthumb 0.416688 -16.6411
lclavicle -3.67752e-015 -1.98785e-014
lhumerus -15.7834 -39.2826 63.0298
lradius 108.621
lwrist -30.6621
lhand -45.249 31.776
lfingers 7.12502
lthumb -18.0233 60.9609
rfemur -20.943 20.463 13.3947
rtibia 18.7248
rfoot -11.1697 0.719248
rtoes -18.7899
lfemur 2.75374 35.0269 -20.5822
ltibia -9.54166e-015
lfoot -12.3771 1.3575
ltoes 11.9328
1186
root 0.0396873 17.7564 -0.232492 186.474 124.717 175.372
lowerback -7.92925 -11.1802 -6.80182
upperback -9.76024 -14.3008 5.11658
thorax -3.02956 -6.65021 7.9731
lowerneck -11.7041 -4.73604 -7.04872
upperneck 33.1018 -5.94303 2.92603
head 13.4077 -3.02939 1.51426
rclavicle -6.4605e-015 7.95139e-016
rhumerus -364.241 39.3446 -396.082
rradius 111.401
rwrist 31.1752
rhand -26.2649 13.4674
rfingers 7.12502
rthumb 0.289888 -16.5121
lclavicle -6.4605e-015 7.95139e-016
lhumerus -15.1818 -39.035 62.1637
lradius 108.814
lwrist -30.7338
lhand -44.5735 31.6476
lfingers 7.12502
lthumb -17.3732 60.8911
rfemur -20.8079 20.1801 13.498
rtibia 18.644
rfoot -11.1418 0.0375763
rtoes -19.3347
lfemur 2.50246 34.2027 -20.5353
ltibia 3.18055e-015
lfoot -12.2394 1.34136
ltoes 12.0602
1187
root 0.0404073 17.7586 -0.233143 186.618 123.644 175.446
lowerback -8.07063 -10.9188 -6.66318
upperback -9.65641 -13.9455 4.88885
thorax -2.99051 -6.48328 7.68072
lowerneck -11.8841 -4.61646 -6.73492
upperneck 32.8533 -5.84533 3.03121
head 13.3216 -2.92477 1.51388
rclavicle -6.74874e-014 -3.81667e-014
rhumerus -363.946 39.3027 -396.329
rradius 111.395
rwrist 31.34
rhand -27.0061 12.9038
rfingers 7.12502
rthumb -0.425956 -17.0755
lclavicle -6.74874e-014 -3.81667e-014
lhumerus -14.5638 -38.5932 61.127
lradius 109.067
lwrist -30.4582
lhand -43.9122 31.4036
lfingers 7.12502
lthumb -16.7367 60.7021
rfemur -20.6095 19.8379 13.446
rtibia 18.4496
rfoot -11.0903 -0.665943
rtoes -20.1827
lfemur 2.2165 33.2999 -20.6524
ltibia -1.43125e-014
lfoot -12.0798 1.30074
ltoes 12.5034
1188
root 0.0377615 17.7648 -0.23285 186.42 122.532 175.12
lowerback -8.1452 -10.691 -6.36261
upperback -9.60403 -13.6441 4.83948
thorax -3.02043 -6.34339 7.49993
lowerneck -12.0889 -4.45987 -6.65087
upperneck 32.6845 -5.62497 3.11219
head 13.278 -2.79786 1.56204
rclavicle 2.27708e-013 8.94531e-014
rhumerus -363.403 39.408 -396.294
rradius 111.308
rwrist 31.4387
rhand -28.0021 12.2557
rfingers 7.12502
rthumb -1.38798 -17.7195
lclavicle 2.27708e-013 8.94531e-014
lhumerus -14.2614 -38.2567 60.3455
lradius 109.225
lwrist -29.8411
lhand -44.4887 33.5956
lfingers 7.12502
lthumb -17.2916 62.8464
rfemur -20.3603 19.6089 13.6276
rtibia 18.239
rfoot -11.0107 -1.50298
rtoes -20.687
lfemur 1.93572 32.3855 -20.5081
ltibia 1.11319e-014
lfoot -11.8614 1.31992
ltoes 12.1161
1189
root 0.0368582 17.7701 -0.23224 186.323 121.394 174.888
lowerback -8.15178 -10.5178 -6.15885
upperback -9.69999 -13.4114 4.90389
thorax -3.18597 -6.21961 7.50613
lowerneck -12.1044 -4.23511 -6.70247
upperneck 32.5319 -5.2401 3.07635
head 13.1922 -2.63213 1.61663
rclavicle 4.65156e-014 2.18663e-014
rhumerus -362.757 39.641 -396.094
rradius 111.192
rwrist 31.4425
rhand -28.1978 12.154
rfingers 7.12502
rthumb -1.57695 -17.8199
lclavicle 4.65156e-014 2.18663e-014
lhumerus -14.3934 -37.8032 60.1159
lradius 109.205
lwrist -29.6614
lhand -44.7563 36.0758
lfingers 7.12502
lthumb -17.5492 65.3037
rfemur -20.1707 19.3683 13.7311
rtibia 18.0929
rfoot -11.0072 -2.35888
rtoes -20.7553
lfemur 1.62613 31.4359 -20.456
ltibia 6.36111e-015
lfoot -11.6331 1.37265
ltoes 11.1672
1190
root 0.0361212 17.774 -0.229376 186.46 120.282 174.979
lowerback -8.12032 -10.2728 -6.15534
upperback -9.77182 -13.0801 4.80051
thorax -3.36049 -6.03974 7.45877
lowerneck -12.0992 -4.07299 -6.37799
upperneck 32.4079 -4.99245 2.86687
head 13.1039 -2.50281 1.51753
rclavicle -6.38099e-014 1.19271e-015
rhumerus -362.5 39.6835 -396.185
rradius 111.142
rwrist 31.429
rhand -28.0135 12.0816
rfingers 7.12502
rthumb -1.39895 -17.8935
lclavicle -6.38099e-014 1.19271e-015
lhumerus -14.4581 -37.5242 59.8162
lradius 109.108
lwrist -29.724
lhand -44.152 35.0401
lfingers 7.12502
lthumb -16.9675 64.319
rfemur -19.942 19.1669 13.6489
rtibia 17.9432
rfoot -10.9667 -3.15592
rtoes -20.4217
lfemur 1.38623 30.4943 -20.534
ltibia 3.81667e-014
lfoot -11.4482 1.3427
ltoes 10.7099
